<svg xmlns="http://www.w3.org/2000/svg" xmlns:xlink="http://www.w3.org/1999/xlink" version="1.1" width="256" height="256" viewBox="0 0 256 256" xml:space="preserve">
<g style="stroke: none; stroke-width: 0; stroke-dasharray: none; stroke-linecap: butt; stroke-linejoin: miter; stroke-miterlimit: 10; fill: none; fill-rule: nonzero; opacity: 1;" transform="translate(1.4065934065934016 1.4065934065934016) scale(2.81 2.81)">
	<path d="M 45 0 C 25.463 0 9.625 15.838 9.625 35.375 c 0 8.722 3.171 16.693 8.404 22.861 L 45 90 l 26.97 -31.765 c 5.233 -6.167 8.404 -14.139 8.404 -22.861 C 80.375 15.838 64.537 0 45 0 z" style="stroke: none; stroke-width: 1; stroke-dasharray: none; stroke-linecap: butt; stroke-linejoin: miter; stroke-miterlimit: 10; fill: rgb(221,58,58); fill-rule: nonzero; opacity: 1;" transform=" matrix(1 0 0 1 0 0) " stroke-linecap="round"/>
	<circle cx="45.001000000000005" cy="34.511" r="24.361" style="stroke: none; stroke-width: 1; stroke-dasharray: none; stroke-linecap: butt; stroke-linejoin: miter; stroke-miterlimit: 10; fill: rgb(230,243,255); fill-rule: nonzero; opacity: 1;" transform="  matrix(1 0 0 1 0 0) "/>
	<path d="M 66.522 20.758 c -0.052 -0.128 -0.128 -0.246 -0.224 -0.349 c -2.977 -4.473 -7.321 -7.96 -12.434 -9.856 c -0.044 -0.019 -0.088 -0.036 -0.133 -0.05 C 51.006 9.51 48.065 8.966 45 8.966 c -3.072 0 -6.018 0.545 -8.749 1.543 c -0.033 0.01 -0.065 0.023 -0.098 0.037 c -5.122 1.895 -9.474 5.387 -12.454 9.867 c -0.094 0.101 -0.169 0.217 -0.22 0.343 c -2.557 3.98 -4.048 8.707 -4.048 13.779 c 0 1.033 0.069 2.049 0.188 3.05 c 0.002 0.081 0.012 0.162 0.031 0.241 c 0.572 4.429 2.275 8.507 4.819 11.929 c 0.065 0.125 0.15 0.237 0.254 0.329 c 3.552 4.621 8.644 7.994 14.502 9.352 c 0.043 0.015 0.087 0.021 0.131 0.03 c 1.817 0.411 3.704 0.635 5.643 0.635 c 1.94 0 3.827 -0.224 5.644 -0.635 c 0.044 -0.009 0.087 -0.016 0.13 -0.03 c 5.866 -1.36 10.963 -4.74 14.516 -9.369 c 0.093 -0.085 0.171 -0.187 0.232 -0.3 c 2.547 -3.422 4.253 -7.501 4.827 -11.931 c 0.022 -0.087 0.033 -0.174 0.034 -0.263 c 0.119 -0.998 0.187 -2.011 0.187 -3.04 C 70.568 29.464 69.078 24.737 66.522 20.758 z M 64.174 21.325 l -3.587 8.45 l -5.879 1.408 l -8.572 -6.227 v -6.682 l 7.428 -5.397 C 57.881 14.59 61.568 17.555 64.174 21.325 z M 36.436 12.877 l 7.428 5.397 v 6.682 l -8.571 6.227 l -5.879 -1.408 l -3.587 -8.45 C 28.432 17.555 32.119 14.59 36.436 12.877 z M 21.965 38.013 l 6.931 -6.025 l 5.757 1.379 l 3.251 10.007 L 35.21 47.57 l -9.155 0.495 C 23.962 45.143 22.523 41.721 21.965 38.013 z M 40.428 57.377 l -3.308 -8.574 l 2.652 -4.132 h 10.456 l 2.652 4.131 l -3.309 8.575 C 48.092 57.672 46.564 57.83 45 57.83 C 43.435 57.83 41.907 57.672 40.428 57.377 z M 63.945 48.066 l -9.155 -0.496 l -2.694 -4.196 l 3.252 -10.008 l 5.757 -1.379 l 6.93 6.025 C 67.477 41.721 66.038 45.143 63.945 48.066 z" style="stroke: none; stroke-width: 1; stroke-dasharray: none; stroke-linecap: butt; stroke-linejoin: miter; stroke-miterlimit: 10; fill: rgb(0,0,0); fill-rule: nonzero; opacity: 1;" transform=" matrix(1 0 0 1 0 0) " stroke-linecap="round"/>
</g>
</svg>